solid OpenSCAD_Model
  facet normal 0.995185 0.0980173 0
    outer loop
      vertex 15 0 0.5
      vertex 14.7118 2.92635 -0.5
      vertex 14.7118 2.92635 0.5
    endloop
  endfacet
  facet normal 0.995185 0.0980173 0
    outer loop
      vertex 14.7118 2.92635 -0.5
      vertex 15 0 0.5
      vertex 15 0 -0.5
    endloop
  endfacet
  facet normal -0.995185 0.0980173 0
    outer loop
      vertex -15 0 -0.5
      vertex -14.7118 2.92635 0.5
      vertex -14.7118 2.92635 -0.5
    endloop
  endfacet
  facet normal -0.995185 0.0980173 0
    outer loop
      vertex -14.7118 2.92635 0.5
      vertex -15 0 -0.5
      vertex -15 0 0.5
    endloop
  endfacet
  facet normal 0.0980173 0.995185 -0
    outer loop
      vertex 2.92635 14.7118 -0.5
      vertex 0 15 0.5
      vertex 2.92635 14.7118 0.5
    endloop
  endfacet
  facet normal 0.0980173 0.995185 0
    outer loop
      vertex 0 15 0.5
      vertex 2.92635 14.7118 -0.5
      vertex 0 15 -0.5
    endloop
  endfacet
  facet normal -0.0980173 -0.995185 0
    outer loop
      vertex -2.92635 -14.7118 -0.5
      vertex 0 -15 0.5
      vertex -2.92635 -14.7118 0.5
    endloop
  endfacet
  facet normal -0.0980173 -0.995185 -0
    outer loop
      vertex 0 -15 0.5
      vertex -2.92635 -14.7118 -0.5
      vertex 0 -15 -0.5
    endloop
  endfacet
  facet normal -0.773011 -0.634393 0
    outer loop
      vertex -10.6066 -10.6066 -0.5
      vertex -12.472 -8.33355 0.5
      vertex -12.472 -8.33355 -0.5
    endloop
  endfacet
  facet normal -0.773011 -0.634393 0
    outer loop
      vertex -12.472 -8.33355 0.5
      vertex -10.6066 -10.6066 -0.5
      vertex -10.6066 -10.6066 0.5
    endloop
  endfacet
  facet normal 0.773011 0.634393 0
    outer loop
      vertex 12.472 8.33355 0.5
      vertex 10.6066 10.6066 -0.5
      vertex 10.6066 10.6066 0.5
    endloop
  endfacet
  facet normal 0.773011 0.634393 0
    outer loop
      vertex 10.6066 10.6066 -0.5
      vertex 12.472 8.33355 0.5
      vertex 12.472 8.33355 -0.5
    endloop
  endfacet
  facet normal -0.634393 0.773011 0
    outer loop
      vertex -8.33355 12.472 -0.5
      vertex -10.6066 10.6066 0.5
      vertex -8.33355 12.472 0.5
    endloop
  endfacet
  facet normal -0.634393 0.773011 0
    outer loop
      vertex -10.6066 10.6066 0.5
      vertex -8.33355 12.472 -0.5
      vertex -10.6066 10.6066 -0.5
    endloop
  endfacet
  facet normal -0.290285 0.95694 0
    outer loop
      vertex -2.92635 14.7118 -0.5
      vertex -5.74025 13.8582 0.5
      vertex -2.92635 14.7118 0.5
    endloop
  endfacet
  facet normal -0.290285 0.95694 0
    outer loop
      vertex -5.74025 13.8582 0.5
      vertex -2.92635 14.7118 -0.5
      vertex -5.74025 13.8582 -0.5
    endloop
  endfacet
  facet normal 0 0 -1
    outer loop
      vertex 14.7118 -2.92635 -0.5
      vertex 14.7118 2.92635 -0.5
      vertex 15 0 -0.5
    endloop
  endfacet
  facet normal 0 0 -1
    outer loop
      vertex 13.8582 -5.74025 -0.5
      vertex 14.7118 2.92635 -0.5
      vertex 14.7118 -2.92635 -0.5
    endloop
  endfacet
  facet normal 0 0 -1
    outer loop
      vertex 13.8582 -5.74025 -0.5
      vertex 13.8582 5.74025 -0.5
      vertex 14.7118 2.92635 -0.5
    endloop
  endfacet
  facet normal 0 0 -1
    outer loop
      vertex 12.472 -8.33355 -0.5
      vertex 13.8582 5.74025 -0.5
      vertex 13.8582 -5.74025 -0.5
    endloop
  endfacet
  facet normal 0 0 -1
    outer loop
      vertex 12.472 -8.33355 -0.5
      vertex 12.472 8.33355 -0.5
      vertex 13.8582 5.74025 -0.5
    endloop
  endfacet
  facet normal 0 0 -1
    outer loop
      vertex 10.6066 -10.6066 -0.5
      vertex 12.472 8.33355 -0.5
      vertex 12.472 -8.33355 -0.5
    endloop
  endfacet
  facet normal 0 0 -1
    outer loop
      vertex 10.6066 -10.6066 -0.5
      vertex 10.6066 10.6066 -0.5
      vertex 12.472 8.33355 -0.5
    endloop
  endfacet
  facet normal 0 0 -1
    outer loop
      vertex 8.33355 -12.472 -0.5
      vertex 10.6066 10.6066 -0.5
      vertex 10.6066 -10.6066 -0.5
    endloop
  endfacet
  facet normal 0 0 -1
    outer loop
      vertex 8.33355 -12.472 -0.5
      vertex 8.33355 12.472 -0.5
      vertex 10.6066 10.6066 -0.5
    endloop
  endfacet
  facet normal 0 0 -1
    outer loop
      vertex 5.74025 -13.8582 -0.5
      vertex 8.33355 12.472 -0.5
      vertex 8.33355 -12.472 -0.5
    endloop
  endfacet
  facet normal 0 0 -1
    outer loop
      vertex 5.74025 -13.8582 -0.5
      vertex 5.74025 13.8582 -0.5
      vertex 8.33355 12.472 -0.5
    endloop
  endfacet
  facet normal 0 0 -1
    outer loop
      vertex 2.92635 -14.7118 -0.5
      vertex 5.74025 13.8582 -0.5
      vertex 5.74025 -13.8582 -0.5
    endloop
  endfacet
  facet normal 0 0 -1
    outer loop
      vertex 2.92635 -14.7118 -0.5
      vertex 2.92635 14.7118 -0.5
      vertex 5.74025 13.8582 -0.5
    endloop
  endfacet
  facet normal 0 0 -1
    outer loop
      vertex 0 -15 -0.5
      vertex 2.92635 14.7118 -0.5
      vertex 2.92635 -14.7118 -0.5
    endloop
  endfacet
  facet normal 0 0 -1
    outer loop
      vertex 0 -15 -0.5
      vertex 0 15 -0.5
      vertex 2.92635 14.7118 -0.5
    endloop
  endfacet
  facet normal 0 0 -1
    outer loop
      vertex -2.92635 -14.7118 -0.5
      vertex 0 15 -0.5
      vertex 0 -15 -0.5
    endloop
  endfacet
  facet normal 0 0 -1
    outer loop
      vertex -2.92635 -14.7118 -0.5
      vertex -2.92635 14.7118 -0.5
      vertex 0 15 -0.5
    endloop
  endfacet
  facet normal 0 0 -1
    outer loop
      vertex -5.74025 -13.8582 -0.5
      vertex -2.92635 14.7118 -0.5
      vertex -2.92635 -14.7118 -0.5
    endloop
  endfacet
  facet normal 0 0 -1
    outer loop
      vertex -5.74025 -13.8582 -0.5
      vertex -5.74025 13.8582 -0.5
      vertex -2.92635 14.7118 -0.5
    endloop
  endfacet
  facet normal 0 0 -1
    outer loop
      vertex -8.33355 -12.472 -0.5
      vertex -5.74025 13.8582 -0.5
      vertex -5.74025 -13.8582 -0.5
    endloop
  endfacet
  facet normal 0 0 -1
    outer loop
      vertex -8.33355 -12.472 -0.5
      vertex -8.33355 12.472 -0.5
      vertex -5.74025 13.8582 -0.5
    endloop
  endfacet
  facet normal 0 0 -1
    outer loop
      vertex -10.6066 -10.6066 -0.5
      vertex -8.33355 12.472 -0.5
      vertex -8.33355 -12.472 -0.5
    endloop
  endfacet
  facet normal 0 0 -1
    outer loop
      vertex -10.6066 -10.6066 -0.5
      vertex -10.6066 10.6066 -0.5
      vertex -8.33355 12.472 -0.5
    endloop
  endfacet
  facet normal 0 0 -1
    outer loop
      vertex -12.472 -8.33355 -0.5
      vertex -10.6066 10.6066 -0.5
      vertex -10.6066 -10.6066 -0.5
    endloop
  endfacet
  facet normal 0 0 -1
    outer loop
      vertex -12.472 -8.33355 -0.5
      vertex -12.472 8.33355 -0.5
      vertex -10.6066 10.6066 -0.5
    endloop
  endfacet
  facet normal 0 0 -1
    outer loop
      vertex -13.8582 -5.74025 -0.5
      vertex -12.472 8.33355 -0.5
      vertex -12.472 -8.33355 -0.5
    endloop
  endfacet
  facet normal 0 0 -1
    outer loop
      vertex -13.8582 -5.74025 -0.5
      vertex -13.8582 5.74025 -0.5
      vertex -12.472 8.33355 -0.5
    endloop
  endfacet
  facet normal 0 0 -1
    outer loop
      vertex -14.7118 -2.92635 -0.5
      vertex -13.8582 5.74025 -0.5
      vertex -13.8582 -5.74025 -0.5
    endloop
  endfacet
  facet normal 0 0 -1
    outer loop
      vertex -14.7118 -2.92635 -0.5
      vertex -14.7118 2.92635 -0.5
      vertex -13.8582 5.74025 -0.5
    endloop
  endfacet
  facet normal 0 -0 -1
    outer loop
      vertex -14.7118 2.92635 -0.5
      vertex -14.7118 -2.92635 -0.5
      vertex -15 0 -0.5
    endloop
  endfacet
  facet normal 0.881921 0.471397 0
    outer loop
      vertex 13.8582 5.74025 0.5
      vertex 12.472 8.33355 -0.5
      vertex 12.472 8.33355 0.5
    endloop
  endfacet
  facet normal 0.881921 0.471397 0
    outer loop
      vertex 12.472 8.33355 -0.5
      vertex 13.8582 5.74025 0.5
      vertex 13.8582 5.74025 -0.5
    endloop
  endfacet
  facet normal 0.95694 0.290285 0
    outer loop
      vertex 14.7118 2.92635 0.5
      vertex 13.8582 5.74025 -0.5
      vertex 13.8582 5.74025 0.5
    endloop
  endfacet
  facet normal 0.95694 0.290285 0
    outer loop
      vertex 13.8582 5.74025 -0.5
      vertex 14.7118 2.92635 0.5
      vertex 14.7118 2.92635 -0.5
    endloop
  endfacet
  facet normal 0.471397 0.881921 -0
    outer loop
      vertex 8.33355 12.472 -0.5
      vertex 5.74025 13.8582 0.5
      vertex 8.33355 12.472 0.5
    endloop
  endfacet
  facet normal 0.471397 0.881921 0
    outer loop
      vertex 5.74025 13.8582 0.5
      vertex 8.33355 12.472 -0.5
      vertex 5.74025 13.8582 -0.5
    endloop
  endfacet
  facet normal 0.290285 0.95694 -0
    outer loop
      vertex 5.74025 13.8582 -0.5
      vertex 2.92635 14.7118 0.5
      vertex 5.74025 13.8582 0.5
    endloop
  endfacet
  facet normal 0.290285 0.95694 0
    outer loop
      vertex 2.92635 14.7118 0.5
      vertex 5.74025 13.8582 -0.5
      vertex 2.92635 14.7118 -0.5
    endloop
  endfacet
  facet normal 0.634393 0.773011 -0
    outer loop
      vertex 10.6066 10.6066 -0.5
      vertex 8.33355 12.472 0.5
      vertex 10.6066 10.6066 0.5
    endloop
  endfacet
  facet normal 0.634393 0.773011 0
    outer loop
      vertex 8.33355 12.472 0.5
      vertex 10.6066 10.6066 -0.5
      vertex 8.33355 12.472 -0.5
    endloop
  endfacet
  facet normal -0.881921 0.471397 0
    outer loop
      vertex -13.8582 5.74025 -0.5
      vertex -12.472 8.33355 0.5
      vertex -12.472 8.33355 -0.5
    endloop
  endfacet
  facet normal -0.881921 0.471397 0
    outer loop
      vertex -12.472 8.33355 0.5
      vertex -13.8582 5.74025 -0.5
      vertex -13.8582 5.74025 0.5
    endloop
  endfacet
  facet normal -0.773011 0.634393 0
    outer loop
      vertex -12.472 8.33355 -0.5
      vertex -10.6066 10.6066 0.5
      vertex -10.6066 10.6066 -0.5
    endloop
  endfacet
  facet normal -0.773011 0.634393 0
    outer loop
      vertex -10.6066 10.6066 0.5
      vertex -12.472 8.33355 -0.5
      vertex -12.472 8.33355 0.5
    endloop
  endfacet
  facet normal -0.95694 0.290285 0
    outer loop
      vertex -14.7118 2.92635 -0.5
      vertex -13.8582 5.74025 0.5
      vertex -13.8582 5.74025 -0.5
    endloop
  endfacet
  facet normal -0.95694 0.290285 0
    outer loop
      vertex -13.8582 5.74025 0.5
      vertex -14.7118 2.92635 -0.5
      vertex -14.7118 2.92635 0.5
    endloop
  endfacet
  facet normal -0 0 1
    outer loop
      vertex -3.12696 0.808153 0.5
      vertex -2.78255 -1.63964 0.5
      vertex -2.78255 1.63964 0.5
    endloop
  endfacet
  facet normal 0 0 1
    outer loop
      vertex -3.12696 0.808153 0.5
      vertex -3.12696 -0.808153 0.5
      vertex -2.78255 -1.63964 0.5
    endloop
  endfacet
  facet normal 0 0 1
    outer loop
      vertex -3.12696 0.808153 0.5
      vertex -3.1982 0.45 0.5
      vertex -3.12696 -0.808153 0.5
    endloop
  endfacet
  facet normal 0 0 1
    outer loop
      vertex -9.6126 3.49459 0.5
      vertex -3.1982 0.45 0.5
      vertex -3.12696 0.808153 0.5
    endloop
  endfacet
  facet normal 0 0 1
    outer loop
      vertex -3.1982 0.45 0.5
      vertex -9.6126 3.49459 0.5
      vertex -10.2182 0.45 0.5
    endloop
  endfacet
  facet normal -0 0 1
    outer loop
      vertex -2.57967 1.94327 0.5
      vertex -1.94327 -2.57967 0.5
      vertex -1.94327 2.57967 0.5
    endloop
  endfacet
  facet normal 0 0 1
    outer loop
      vertex -2.57967 1.94327 0.5
      vertex -2.57967 -1.94327 0.5
      vertex -1.94327 -2.57967 0.5
    endloop
  endfacet
  facet normal 0 0 1
    outer loop
      vertex -2.57967 1.94327 0.5
      vertex -2.78255 1.63964 0.5
      vertex -2.57967 -1.94327 0.5
    endloop
  endfacet
  facet normal 0 0 1
    outer loop
      vertex -7.54356 6.90716 0.5
      vertex -2.78255 1.63964 0.5
      vertex -2.57967 1.94327 0.5
    endloop
  endfacet
  facet normal 0 0 1
    outer loop
      vertex -7.54356 6.90716 0.5
      vertex -9.26818 4.32608 0.5
      vertex -2.78255 1.63964 0.5
    endloop
  endfacet
  facet normal 0 0 1
    outer loop
      vertex -6.90716 7.54356 0.5
      vertex -10.6066 10.6066 0.5
      vertex -7.54356 6.90716 0.5
    endloop
  endfacet
  facet normal -0 0 1
    outer loop
      vertex -12.472 8.33355 0.5
      vertex -7.54356 6.90716 0.5
      vertex -10.6066 10.6066 0.5
    endloop
  endfacet
  facet normal 0 0 1
    outer loop
      vertex -7.54356 6.90716 0.5
      vertex -12.472 8.33355 0.5
      vertex -9.26818 4.32608 0.5
    endloop
  endfacet
  facet normal 0 0 1
    outer loop
      vertex -9.26818 4.32608 0.5
      vertex -13.8582 5.74025 0.5
      vertex -9.6126 3.49459 0.5
    endloop
  endfacet
  facet normal -0 0 1
    outer loop
      vertex -13.8582 5.74025 0.5
      vertex -9.26818 4.32608 0.5
      vertex -12.472 8.33355 0.5
    endloop
  endfacet
  facet normal -0 0 1
    outer loop
      vertex -1.63964 2.78255 0.5
      vertex -0.808153 -3.12696 0.5
      vertex -0.808153 3.12696 0.5
    endloop
  endfacet
  facet normal 0 0 1
    outer loop
      vertex -1.63964 2.78255 0.5
      vertex -1.63964 -2.78255 0.5
      vertex -0.808153 -3.12696 0.5
    endloop
  endfacet
  facet normal 0 0 1
    outer loop
      vertex -1.63964 2.78255 0.5
      vertex -1.94327 2.57967 0.5
      vertex -1.63964 -2.78255 0.5
    endloop
  endfacet
  facet normal 0 0 1
    outer loop
      vertex -4.32608 9.26818 0.5
      vertex -1.94327 2.57967 0.5
      vertex -1.63964 2.78255 0.5
    endloop
  endfacet
  facet normal 0 0 1
    outer loop
      vertex -4.32608 9.26818 0.5
      vertex -6.90716 7.54356 0.5
      vertex -1.94327 2.57967 0.5
    endloop
  endfacet
  facet normal -0 0 1
    outer loop
      vertex -8.33355 12.472 0.5
      vertex -4.32608 9.26818 0.5
      vertex -5.74025 13.8582 0.5
    endloop
  endfacet
  facet normal 0 0 1
    outer loop
      vertex -4.32608 9.26818 0.5
      vertex -8.33355 12.472 0.5
      vertex -6.90716 7.54356 0.5
    endloop
  endfacet
  facet normal -0 0 1
    outer loop
      vertex -10.6066 10.6066 0.5
      vertex -6.90716 7.54356 0.5
      vertex -8.33355 12.472 0.5
    endloop
  endfacet
  facet normal -0 0 1
    outer loop
      vertex -0.45 3.1982 0.5
      vertex 0.45 -3.1982 0.5
      vertex 0.45 3.1982 0.5
    endloop
  endfacet
  facet normal 0 0 1
    outer loop
      vertex 0.45 -3.1982 0.5
      vertex -0.45 3.1982 0.5
      vertex -0.45 -3.1982 0.5
    endloop
  endfacet
  facet normal -0 0 1
    outer loop
      vertex -1.94327 -2.57967 0.5
      vertex -1.63964 -2.78255 0.5
      vertex -1.94327 2.57967 0.5
    endloop
  endfacet
  facet normal 0 0 1
    outer loop
      vertex -1.94327 -2.57967 0.5
      vertex -4.32608 -9.26818 0.5
      vertex -1.63964 -2.78255 0.5
    endloop
  endfacet
  facet normal -0 0 1
    outer loop
      vertex -6.90716 -7.54356 0.5
      vertex -4.32608 -9.26818 0.5
      vertex -1.94327 -2.57967 0.5
    endloop
  endfacet
  facet normal 0 0 1
    outer loop
      vertex -8.33355 -12.472 0.5
      vertex -4.32608 -9.26818 0.5
      vertex -6.90716 -7.54356 0.5
    endloop
  endfacet
  facet normal 0 0 1
    outer loop
      vertex -10.6066 -10.6066 0.5
      vertex -6.90716 -7.54356 0.5
      vertex -7.54356 -6.90716 0.5
    endloop
  endfacet
  facet normal 0 0 1
    outer loop
      vertex -4.32608 -9.26818 0.5
      vertex -8.33355 -12.472 0.5
      vertex -5.74025 -13.8582 0.5
    endloop
  endfacet
  facet normal -0 0 1
    outer loop
      vertex -2.78255 -1.63964 0.5
      vertex -2.57967 -1.94327 0.5
      vertex -2.78255 1.63964 0.5
    endloop
  endfacet
  facet normal 0 0 1
    outer loop
      vertex -2.78255 -1.63964 0.5
      vertex -7.54356 -6.90716 0.5
      vertex -2.57967 -1.94327 0.5
    endloop
  endfacet
  facet normal -0 0 1
    outer loop
      vertex -9.26818 -4.32608 0.5
      vertex -7.54356 -6.90716 0.5
      vertex -2.78255 -1.63964 0.5
    endloop
  endfacet
  facet normal 0 0 1
    outer loop
      vertex -12.472 -8.33355 0.5
      vertex -7.54356 -6.90716 0.5
      vertex -9.26818 -4.32608 0.5
    endloop
  endfacet
  facet normal 0 0 1
    outer loop
      vertex -13.8582 -5.74025 0.5
      vertex -9.26818 -4.32608 0.5
      vertex -9.6126 -3.49459 0.5
    endloop
  endfacet
  facet normal -0 0 1
    outer loop
      vertex -14.7118 -2.92635 0.5
      vertex -9.6126 -3.49459 0.5
      vertex -10.2182 -0.45 0.5
    endloop
  endfacet
  facet normal 0 0 1
    outer loop
      vertex -6.90716 -7.54356 0.5
      vertex -10.6066 -10.6066 0.5
      vertex -8.33355 -12.472 0.5
    endloop
  endfacet
  facet normal 0 0 1
    outer loop
      vertex -14.7118 2.92635 0.5
      vertex -9.6126 3.49459 0.5
      vertex -13.8582 5.74025 0.5
    endloop
  endfacet
  facet normal 0 0 1
    outer loop
      vertex -9.6126 3.49459 0.5
      vertex -14.7118 2.92635 0.5
      vertex -10.2182 0.45 0.5
    endloop
  endfacet
  facet normal 0 0 1
    outer loop
      vertex -7.54356 -6.90716 0.5
      vertex -12.472 -8.33355 0.5
      vertex -10.6066 -10.6066 0.5
    endloop
  endfacet
  facet normal 0 0 1
    outer loop
      vertex -15 0 0.5
      vertex -10.2182 0.45 0.5
      vertex -14.7118 2.92635 0.5
    endloop
  endfacet
  facet normal 0 0 1
    outer loop
      vertex -9.26818 -4.32608 0.5
      vertex -13.8582 -5.74025 0.5
      vertex -12.472 -8.33355 0.5
    endloop
  endfacet
  facet normal 0 0 1
    outer loop
      vertex -10.2182 0.45 0.5
      vertex -15 0 0.5
      vertex -10.2182 -0.45 0.5
    endloop
  endfacet
  facet normal 0 0 1
    outer loop
      vertex -9.6126 -3.49459 0.5
      vertex -14.7118 -2.92635 0.5
      vertex -13.8582 -5.74025 0.5
    endloop
  endfacet
  facet normal 0 0 1
    outer loop
      vertex -10.2182 -0.45 0.5
      vertex -15 0 0.5
      vertex -14.7118 -2.92635 0.5
    endloop
  endfacet
  facet normal -0 0 1
    outer loop
      vertex -3.1982 -0.45 0.5
      vertex -3.12696 -0.808153 0.5
      vertex -3.1982 0.45 0.5
    endloop
  endfacet
  facet normal 0 0 1
    outer loop
      vertex -3.1982 -0.45 0.5
      vertex -9.6126 -3.49459 0.5
      vertex -3.12696 -0.808153 0.5
    endloop
  endfacet
  facet normal 0 -0 1
    outer loop
      vertex -9.6126 -3.49459 0.5
      vertex -3.1982 -0.45 0.5
      vertex -10.2182 -0.45 0.5
    endloop
  endfacet
  facet normal 0 0 1
    outer loop
      vertex 5.74025 13.8582 0.5
      vertex 3.49459 9.6126 0.5
      vertex 4.32608 9.26818 0.5
    endloop
  endfacet
  facet normal 0 0 1
    outer loop
      vertex 2.92635 14.7118 0.5
      vertex 3.49459 9.6126 0.5
      vertex 5.74025 13.8582 0.5
    endloop
  endfacet
  facet normal -0 0 1
    outer loop
      vertex 0.45 10.2182 0.5
      vertex 3.49459 9.6126 0.5
      vertex 2.92635 14.7118 0.5
    endloop
  endfacet
  facet normal -0 0 1
    outer loop
      vertex 0.45 3.1982 0.5
      vertex 0.808153 3.12696 0.5
      vertex 0.45 10.2182 0.5
    endloop
  endfacet
  facet normal 0 0 1
    outer loop
      vertex 3.49459 9.6126 0.5
      vertex 0.45 10.2182 0.5
      vertex 0.808153 3.12696 0.5
    endloop
  endfacet
  facet normal 0 0 1
    outer loop
      vertex 0 15 0.5
      vertex 0.45 10.2182 0.5
      vertex 2.92635 14.7118 0.5
    endloop
  endfacet
  facet normal 0 0 1
    outer loop
      vertex 0 15 0.5
      vertex -0.45 10.2182 0.5
      vertex 0.45 10.2182 0.5
    endloop
  endfacet
  facet normal 0 0 1
    outer loop
      vertex -0.808153 3.12696 0.5
      vertex -0.45 3.1982 0.5
      vertex -0.45 10.2182 0.5
    endloop
  endfacet
  facet normal 0 0 1
    outer loop
      vertex -0.45 3.1982 0.5
      vertex -0.808153 3.12696 0.5
      vertex -0.45 -3.1982 0.5
    endloop
  endfacet
  facet normal -0 0 1
    outer loop
      vertex -0.808153 -3.12696 0.5
      vertex -0.45 -3.1982 0.5
      vertex -0.808153 3.12696 0.5
    endloop
  endfacet
  facet normal -0 0 1
    outer loop
      vertex -2.92635 14.7118 0.5
      vertex -0.45 10.2182 0.5
      vertex 0 15 0.5
    endloop
  endfacet
  facet normal 0 0 1
    outer loop
      vertex -3.49459 9.6126 0.5
      vertex -0.45 10.2182 0.5
      vertex -2.92635 14.7118 0.5
    endloop
  endfacet
  facet normal 0 0 1
    outer loop
      vertex -0.45 10.2182 0.5
      vertex -3.49459 9.6126 0.5
      vertex -0.808153 3.12696 0.5
    endloop
  endfacet
  facet normal -0 0 1
    outer loop
      vertex -5.74025 13.8582 0.5
      vertex -3.49459 9.6126 0.5
      vertex -2.92635 14.7118 0.5
    endloop
  endfacet
  facet normal 0 0 1
    outer loop
      vertex -3.49459 9.6126 0.5
      vertex -5.74025 13.8582 0.5
      vertex -4.32608 9.26818 0.5
    endloop
  endfacet
  facet normal 0 0 1
    outer loop
      vertex 10.6066 10.6066 0.5
      vertex 6.90716 7.54356 0.5
      vertex 7.54356 6.90716 0.5
    endloop
  endfacet
  facet normal 0 0 1
    outer loop
      vertex 4.32608 9.26818 0.5
      vertex 8.33355 12.472 0.5
      vertex 5.74025 13.8582 0.5
    endloop
  endfacet
  facet normal 0 0 1
    outer loop
      vertex 8.33355 12.472 0.5
      vertex 4.32608 9.26818 0.5
      vertex 6.90716 7.54356 0.5
    endloop
  endfacet
  facet normal 0 0 1
    outer loop
      vertex 4.32608 9.26818 0.5
      vertex 1.94327 2.57967 0.5
      vertex 6.90716 7.54356 0.5
    endloop
  endfacet
  facet normal 0 0 1
    outer loop
      vertex 1.94327 2.57967 0.5
      vertex 1.63964 2.78255 0.5
      vertex 1.94327 -2.57967 0.5
    endloop
  endfacet
  facet normal -0 0 1
    outer loop
      vertex 1.63964 2.78255 0.5
      vertex 1.94327 2.57967 0.5
      vertex 4.32608 9.26818 0.5
    endloop
  endfacet
  facet normal -0 0 1
    outer loop
      vertex 3.1982 -0.45 0.5
      vertex 9.6126 -3.49459 0.5
      vertex 10.2182 -0.45 0.5
    endloop
  endfacet
  facet normal 0 0 1
    outer loop
      vertex 3.1982 -0.45 0.5
      vertex 3.12696 -0.808153 0.5
      vertex 9.6126 -3.49459 0.5
    endloop
  endfacet
  facet normal 0 0 1
    outer loop
      vertex 3.12696 0.808153 0.5
      vertex 3.12696 -0.808153 0.5
      vertex 3.1982 -0.45 0.5
    endloop
  endfacet
  facet normal 0 0 1
    outer loop
      vertex 2.78255 1.63964 0.5
      vertex 3.12696 -0.808153 0.5
      vertex 3.12696 0.808153 0.5
    endloop
  endfacet
  facet normal 0 0 1
    outer loop
      vertex 3.12696 -0.808153 0.5
      vertex 2.78255 1.63964 0.5
      vertex 2.78255 -1.63964 0.5
    endloop
  endfacet
  facet normal -0 0 1
    outer loop
      vertex 10.2182 0.45 0.5
      vertex 15 0 0.5
      vertex 14.7118 2.92635 0.5
    endloop
  endfacet
  facet normal -0 0 1
    outer loop
      vertex 9.6126 3.49459 0.5
      vertex 14.7118 2.92635 0.5
      vertex 13.8582 5.74025 0.5
    endloop
  endfacet
  facet normal 0 0 1
    outer loop
      vertex 10.2182 -0.45 0.5
      vertex 15 0 0.5
      vertex 10.2182 0.45 0.5
    endloop
  endfacet
  facet normal 0 0 1
    outer loop
      vertex 9.26818 4.32608 0.5
      vertex 13.8582 5.74025 0.5
      vertex 12.472 8.33355 0.5
    endloop
  endfacet
  facet normal 0 0 1
    outer loop
      vertex 15 0 0.5
      vertex 10.2182 -0.45 0.5
      vertex 14.7118 -2.92635 0.5
    endloop
  endfacet
  facet normal 0 0 1
    outer loop
      vertex 7.54356 6.90716 0.5
      vertex 12.472 8.33355 0.5
      vertex 10.6066 10.6066 0.5
    endloop
  endfacet
  facet normal 0 0 1
    outer loop
      vertex 9.6126 -3.49459 0.5
      vertex 14.7118 -2.92635 0.5
      vertex 10.2182 -0.45 0.5
    endloop
  endfacet
  facet normal 0 0 1
    outer loop
      vertex 14.7118 -2.92635 0.5
      vertex 9.6126 -3.49459 0.5
      vertex 13.8582 -5.74025 0.5
    endloop
  endfacet
  facet normal 0 0 1
    outer loop
      vertex 14.7118 2.92635 0.5
      vertex 9.6126 3.49459 0.5
      vertex 10.2182 0.45 0.5
    endloop
  endfacet
  facet normal 0 0 1
    outer loop
      vertex 13.8582 5.74025 0.5
      vertex 9.26818 4.32608 0.5
      vertex 9.6126 3.49459 0.5
    endloop
  endfacet
  facet normal 0 0 1
    outer loop
      vertex 6.90716 7.54356 0.5
      vertex 10.6066 10.6066 0.5
      vertex 8.33355 12.472 0.5
    endloop
  endfacet
  facet normal 0 0 1
    outer loop
      vertex 12.472 8.33355 0.5
      vertex 7.54356 6.90716 0.5
      vertex 9.26818 4.32608 0.5
    endloop
  endfacet
  facet normal 0 0 1
    outer loop
      vertex 7.54356 6.90716 0.5
      vertex 2.78255 1.63964 0.5
      vertex 9.26818 4.32608 0.5
    endloop
  endfacet
  facet normal 0 0 1
    outer loop
      vertex 2.78255 1.63964 0.5
      vertex 2.57967 1.94327 0.5
      vertex 2.78255 -1.63964 0.5
    endloop
  endfacet
  facet normal -0 0 1
    outer loop
      vertex 2.57967 1.94327 0.5
      vertex 2.78255 1.63964 0.5
      vertex 7.54356 6.90716 0.5
    endloop
  endfacet
  facet normal -0 0 1
    outer loop
      vertex 9.26818 -4.32608 0.5
      vertex 13.8582 -5.74025 0.5
      vertex 9.6126 -3.49459 0.5
    endloop
  endfacet
  facet normal 0 0 1
    outer loop
      vertex 13.8582 -5.74025 0.5
      vertex 9.26818 -4.32608 0.5
      vertex 12.472 -8.33355 0.5
    endloop
  endfacet
  facet normal -0 0 1
    outer loop
      vertex 7.54356 -6.90716 0.5
      vertex 12.472 -8.33355 0.5
      vertex 9.26818 -4.32608 0.5
    endloop
  endfacet
  facet normal 0 0 1
    outer loop
      vertex 12.472 -8.33355 0.5
      vertex 7.54356 -6.90716 0.5
      vertex 10.6066 -10.6066 0.5
    endloop
  endfacet
  facet normal -0 0 1
    outer loop
      vertex 6.90716 -7.54356 0.5
      vertex 10.6066 -10.6066 0.5
      vertex 7.54356 -6.90716 0.5
    endloop
  endfacet
  facet normal 0 0 1
    outer loop
      vertex 2.78255 -1.63964 0.5
      vertex 7.54356 -6.90716 0.5
      vertex 9.26818 -4.32608 0.5
    endloop
  endfacet
  facet normal 0 0 1
    outer loop
      vertex 2.78255 -1.63964 0.5
      vertex 2.57967 -1.94327 0.5
      vertex 7.54356 -6.90716 0.5
    endloop
  endfacet
  facet normal 0 0 1
    outer loop
      vertex 2.57967 1.94327 0.5
      vertex 2.57967 -1.94327 0.5
      vertex 2.78255 -1.63964 0.5
    endloop
  endfacet
  facet normal 0 0 1
    outer loop
      vertex 1.94327 2.57967 0.5
      vertex 2.57967 -1.94327 0.5
      vertex 2.57967 1.94327 0.5
    endloop
  endfacet
  facet normal 0 0 1
    outer loop
      vertex 2.57967 -1.94327 0.5
      vertex 1.94327 2.57967 0.5
      vertex 1.94327 -2.57967 0.5
    endloop
  endfacet
  facet normal 0 0 1
    outer loop
      vertex 9.6126 3.49459 0.5
      vertex 3.1982 0.45 0.5
      vertex 10.2182 0.45 0.5
    endloop
  endfacet
  facet normal 0 0 1
    outer loop
      vertex 3.1982 0.45 0.5
      vertex 3.12696 0.808153 0.5
      vertex 3.1982 -0.45 0.5
    endloop
  endfacet
  facet normal -0 0 1
    outer loop
      vertex 3.12696 0.808153 0.5
      vertex 3.1982 0.45 0.5
      vertex 9.6126 3.49459 0.5
    endloop
  endfacet
  facet normal 0 0 1
    outer loop
      vertex 10.6066 -10.6066 0.5
      vertex 6.90716 -7.54356 0.5
      vertex 8.33355 -12.472 0.5
    endloop
  endfacet
  facet normal -0 0 1
    outer loop
      vertex 4.32608 -9.26818 0.5
      vertex 8.33355 -12.472 0.5
      vertex 6.90716 -7.54356 0.5
    endloop
  endfacet
  facet normal 0 0 1
    outer loop
      vertex 8.33355 -12.472 0.5
      vertex 4.32608 -9.26818 0.5
      vertex 5.74025 -13.8582 0.5
    endloop
  endfacet
  facet normal 0 0 1
    outer loop
      vertex 1.94327 -2.57967 0.5
      vertex 4.32608 -9.26818 0.5
      vertex 6.90716 -7.54356 0.5
    endloop
  endfacet
  facet normal 0 0 1
    outer loop
      vertex 1.94327 -2.57967 0.5
      vertex 1.63964 -2.78255 0.5
      vertex 4.32608 -9.26818 0.5
    endloop
  endfacet
  facet normal 0 0 1
    outer loop
      vertex 1.63964 2.78255 0.5
      vertex 1.63964 -2.78255 0.5
      vertex 1.94327 -2.57967 0.5
    endloop
  endfacet
  facet normal 0 0 1
    outer loop
      vertex 0.808153 3.12696 0.5
      vertex 1.63964 -2.78255 0.5
      vertex 1.63964 2.78255 0.5
    endloop
  endfacet
  facet normal 0 0 1
    outer loop
      vertex 1.63964 -2.78255 0.5
      vertex 0.808153 3.12696 0.5
      vertex 0.808153 -3.12696 0.5
    endloop
  endfacet
  facet normal -0 0 1
    outer loop
      vertex 3.49459 -9.6126 0.5
      vertex 5.74025 -13.8582 0.5
      vertex 4.32608 -9.26818 0.5
    endloop
  endfacet
  facet normal 0 0 1
    outer loop
      vertex 3.49459 -9.6126 0.5
      vertex 2.92635 -14.7118 0.5
      vertex 5.74025 -13.8582 0.5
    endloop
  endfacet
  facet normal 0 0 1
    outer loop
      vertex 0.45 -10.2182 0.5
      vertex 3.49459 -9.6126 0.5
      vertex 0.808153 -3.12696 0.5
    endloop
  endfacet
  facet normal 0 0 1
    outer loop
      vertex 0.808153 3.12696 0.5
      vertex 0.45 3.1982 0.5
      vertex 0.808153 -3.12696 0.5
    endloop
  endfacet
  facet normal 0 0 1
    outer loop
      vertex 0.45 -3.1982 0.5
      vertex 0.808153 -3.12696 0.5
      vertex 0.45 3.1982 0.5
    endloop
  endfacet
  facet normal 0 0 1
    outer loop
      vertex 0.45 -10.2182 0.5
      vertex 0.808153 -3.12696 0.5
      vertex 0.45 -3.1982 0.5
    endloop
  endfacet
  facet normal 0 0 1
    outer loop
      vertex 3.49459 -9.6126 0.5
      vertex 0.45 -10.2182 0.5
      vertex 2.92635 -14.7118 0.5
    endloop
  endfacet
  facet normal 0 0 1
    outer loop
      vertex 0.45 -10.2182 0.5
      vertex 0 -15 0.5
      vertex 2.92635 -14.7118 0.5
    endloop
  endfacet
  facet normal -0 0 1
    outer loop
      vertex -0.45 -10.2182 0.5
      vertex 0 -15 0.5
      vertex 0.45 -10.2182 0.5
    endloop
  endfacet
  facet normal 0 0 1
    outer loop
      vertex -0.45 -3.1982 0.5
      vertex -0.808153 -3.12696 0.5
      vertex -0.45 -10.2182 0.5
    endloop
  endfacet
  facet normal 0 0 1
    outer loop
      vertex -0.45 -10.2182 0.5
      vertex -2.92635 -14.7118 0.5
      vertex 0 -15 0.5
    endloop
  endfacet
  facet normal -0 0 1
    outer loop
      vertex -3.49459 -9.6126 0.5
      vertex -0.45 -10.2182 0.5
      vertex -0.808153 -3.12696 0.5
    endloop
  endfacet
  facet normal 0 0 1
    outer loop
      vertex -0.45 -10.2182 0.5
      vertex -3.49459 -9.6126 0.5
      vertex -2.92635 -14.7118 0.5
    endloop
  endfacet
  facet normal 0 0 1
    outer loop
      vertex -5.74025 -13.8582 0.5
      vertex -3.49459 -9.6126 0.5
      vertex -4.32608 -9.26818 0.5
    endloop
  endfacet
  facet normal 0 0 1
    outer loop
      vertex -3.49459 -9.6126 0.5
      vertex -5.74025 -13.8582 0.5
      vertex -2.92635 -14.7118 0.5
    endloop
  endfacet
  facet normal -0.471397 0.881921 0
    outer loop
      vertex -5.74025 13.8582 -0.5
      vertex -8.33355 12.472 0.5
      vertex -5.74025 13.8582 0.5
    endloop
  endfacet
  facet normal -0.471397 0.881921 0
    outer loop
      vertex -8.33355 12.472 0.5
      vertex -5.74025 13.8582 -0.5
      vertex -8.33355 12.472 -0.5
    endloop
  endfacet
  facet normal -0.0980173 0.995185 0
    outer loop
      vertex 0 15 -0.5
      vertex -2.92635 14.7118 0.5
      vertex 0 15 0.5
    endloop
  endfacet
  facet normal -0.0980173 0.995185 0
    outer loop
      vertex -2.92635 14.7118 0.5
      vertex 0 15 -0.5
      vertex -2.92635 14.7118 -0.5
    endloop
  endfacet
  facet normal 0.995185 -0.0980173 0
    outer loop
      vertex 14.7118 -2.92635 0.5
      vertex 15 0 -0.5
      vertex 15 0 0.5
    endloop
  endfacet
  facet normal 0.995185 -0.0980173 0
    outer loop
      vertex 15 0 -0.5
      vertex 14.7118 -2.92635 0.5
      vertex 14.7118 -2.92635 -0.5
    endloop
  endfacet
  facet normal 0.0980173 -0.995185 0
    outer loop
      vertex 0 -15 -0.5
      vertex 2.92635 -14.7118 0.5
      vertex 0 -15 0.5
    endloop
  endfacet
  facet normal 0.0980173 -0.995185 0
    outer loop
      vertex 2.92635 -14.7118 0.5
      vertex 0 -15 -0.5
      vertex 2.92635 -14.7118 -0.5
    endloop
  endfacet
  facet normal 0.471397 -0.881921 0
    outer loop
      vertex 5.74025 -13.8582 -0.5
      vertex 8.33355 -12.472 0.5
      vertex 5.74025 -13.8582 0.5
    endloop
  endfacet
  facet normal 0.471397 -0.881921 0
    outer loop
      vertex 8.33355 -12.472 0.5
      vertex 5.74025 -13.8582 -0.5
      vertex 8.33355 -12.472 -0.5
    endloop
  endfacet
  facet normal -0.634393 -0.773011 0
    outer loop
      vertex -10.6066 -10.6066 -0.5
      vertex -8.33355 -12.472 0.5
      vertex -10.6066 -10.6066 0.5
    endloop
  endfacet
  facet normal -0.634393 -0.773011 -0
    outer loop
      vertex -8.33355 -12.472 0.5
      vertex -10.6066 -10.6066 -0.5
      vertex -8.33355 -12.472 -0.5
    endloop
  endfacet
  facet normal -0.290285 -0.95694 0
    outer loop
      vertex -5.74025 -13.8582 -0.5
      vertex -2.92635 -14.7118 0.5
      vertex -5.74025 -13.8582 0.5
    endloop
  endfacet
  facet normal -0.290285 -0.95694 -0
    outer loop
      vertex -2.92635 -14.7118 0.5
      vertex -5.74025 -13.8582 -0.5
      vertex -2.92635 -14.7118 -0.5
    endloop
  endfacet
  facet normal -0.881921 -0.471397 0
    outer loop
      vertex -12.472 -8.33355 -0.5
      vertex -13.8582 -5.74025 0.5
      vertex -13.8582 -5.74025 -0.5
    endloop
  endfacet
  facet normal -0.881921 -0.471397 0
    outer loop
      vertex -13.8582 -5.74025 0.5
      vertex -12.472 -8.33355 -0.5
      vertex -12.472 -8.33355 0.5
    endloop
  endfacet
  facet normal -0.995185 -0.0980173 0
    outer loop
      vertex -14.7118 -2.92635 -0.5
      vertex -15 0 0.5
      vertex -15 0 -0.5
    endloop
  endfacet
  facet normal -0.995185 -0.0980173 0
    outer loop
      vertex -15 0 0.5
      vertex -14.7118 -2.92635 -0.5
      vertex -14.7118 -2.92635 0.5
    endloop
  endfacet
  facet normal 0.290285 -0.95694 0
    outer loop
      vertex 2.92635 -14.7118 -0.5
      vertex 5.74025 -13.8582 0.5
      vertex 2.92635 -14.7118 0.5
    endloop
  endfacet
  facet normal 0.290285 -0.95694 0
    outer loop
      vertex 5.74025 -13.8582 0.5
      vertex 2.92635 -14.7118 -0.5
      vertex 5.74025 -13.8582 -0.5
    endloop
  endfacet
  facet normal 0.634393 -0.773011 0
    outer loop
      vertex 8.33355 -12.472 -0.5
      vertex 10.6066 -10.6066 0.5
      vertex 8.33355 -12.472 0.5
    endloop
  endfacet
  facet normal 0.634393 -0.773011 0
    outer loop
      vertex 10.6066 -10.6066 0.5
      vertex 8.33355 -12.472 -0.5
      vertex 10.6066 -10.6066 -0.5
    endloop
  endfacet
  facet normal 0.773011 -0.634393 0
    outer loop
      vertex 10.6066 -10.6066 0.5
      vertex 12.472 -8.33355 -0.5
      vertex 12.472 -8.33355 0.5
    endloop
  endfacet
  facet normal 0.773011 -0.634393 0
    outer loop
      vertex 12.472 -8.33355 -0.5
      vertex 10.6066 -10.6066 0.5
      vertex 10.6066 -10.6066 -0.5
    endloop
  endfacet
  facet normal -0.471397 -0.881921 0
    outer loop
      vertex -8.33355 -12.472 -0.5
      vertex -5.74025 -13.8582 0.5
      vertex -8.33355 -12.472 0.5
    endloop
  endfacet
  facet normal -0.471397 -0.881921 -0
    outer loop
      vertex -5.74025 -13.8582 0.5
      vertex -8.33355 -12.472 -0.5
      vertex -5.74025 -13.8582 -0.5
    endloop
  endfacet
  facet normal -0.95694 -0.290285 0
    outer loop
      vertex -13.8582 -5.74025 -0.5
      vertex -14.7118 -2.92635 0.5
      vertex -14.7118 -2.92635 -0.5
    endloop
  endfacet
  facet normal -0.95694 -0.290285 0
    outer loop
      vertex -14.7118 -2.92635 0.5
      vertex -13.8582 -5.74025 -0.5
      vertex -13.8582 -5.74025 0.5
    endloop
  endfacet
  facet normal 0.881921 -0.471397 0
    outer loop
      vertex 12.472 -8.33355 0.5
      vertex 13.8582 -5.74025 -0.5
      vertex 13.8582 -5.74025 0.5
    endloop
  endfacet
  facet normal 0.881921 -0.471397 0
    outer loop
      vertex 13.8582 -5.74025 -0.5
      vertex 12.472 -8.33355 0.5
      vertex 12.472 -8.33355 -0.5
    endloop
  endfacet
  facet normal 0.95694 -0.290285 0
    outer loop
      vertex 13.8582 -5.74025 0.5
      vertex 14.7118 -2.92635 -0.5
      vertex 14.7118 -2.92635 0.5
    endloop
  endfacet
  facet normal 0.95694 -0.290285 0
    outer loop
      vertex 14.7118 -2.92635 -0.5
      vertex 13.8582 -5.74025 0.5
      vertex 13.8582 -5.74025 -0.5
    endloop
  endfacet
  facet normal -1 0 0
    outer loop
      vertex 3.1982 -0.45 0.5
      vertex 3.1982 0.45 1.45
      vertex 3.1982 0.45 0.5
    endloop
  endfacet
  facet normal -1 -0 0
    outer loop
      vertex 3.1982 0.45 1.45
      vertex 3.1982 -0.45 0.5
      vertex 3.1982 -0.45 1.45
    endloop
  endfacet
  facet normal -0 0 1
    outer loop
      vertex 3.1982 0.45 1.45
      vertex 10.2182 -0.45 1.45
      vertex 10.2182 0.45 1.45
    endloop
  endfacet
  facet normal 0 0 1
    outer loop
      vertex 10.2182 -0.45 1.45
      vertex 3.1982 0.45 1.45
      vertex 3.1982 -0.45 1.45
    endloop
  endfacet
  facet normal 1 -0 0
    outer loop
      vertex 10.2182 -0.45 1.45
      vertex 10.2182 0.45 0.5
      vertex 10.2182 0.45 1.45
    endloop
  endfacet
  facet normal 1 0 0
    outer loop
      vertex 10.2182 0.45 0.5
      vertex 10.2182 -0.45 1.45
      vertex 10.2182 -0.45 0.5
    endloop
  endfacet
  facet normal 0 -1 0
    outer loop
      vertex 3.1982 -0.45 0.5
      vertex 10.2182 -0.45 1.45
      vertex 3.1982 -0.45 1.45
    endloop
  endfacet
  facet normal 0 -1 -0
    outer loop
      vertex 10.2182 -0.45 1.45
      vertex 3.1982 -0.45 0.5
      vertex 10.2182 -0.45 0.5
    endloop
  endfacet
  facet normal 0 1 -0
    outer loop
      vertex 10.2182 0.45 0.5
      vertex 3.1982 0.45 1.45
      vertex 10.2182 0.45 1.45
    endloop
  endfacet
  facet normal 0 1 0
    outer loop
      vertex 3.1982 0.45 1.45
      vertex 10.2182 0.45 0.5
      vertex 3.1982 0.45 0.5
    endloop
  endfacet
  facet normal 0.92388 0.382683 0
    outer loop
      vertex 9.6126 3.49459 1.45
      vertex 9.26818 4.32608 0.5
      vertex 9.26818 4.32608 1.45
    endloop
  endfacet
  facet normal 0.92388 0.382683 0
    outer loop
      vertex 9.26818 4.32608 0.5
      vertex 9.6126 3.49459 1.45
      vertex 9.6126 3.49459 0.5
    endloop
  endfacet
  facet normal 0 0 1
    outer loop
      vertex 9.26818 4.32608 1.45
      vertex 3.12696 0.808153 1.45
      vertex 9.6126 3.49459 1.45
    endloop
  endfacet
  facet normal 0 -0 1
    outer loop
      vertex 3.12696 0.808153 1.45
      vertex 9.26818 4.32608 1.45
      vertex 2.78255 1.63964 1.45
    endloop
  endfacet
  facet normal -0.923879 -0.382684 0
    outer loop
      vertex 3.12696 0.808153 0.5
      vertex 2.78255 1.63964 1.45
      vertex 2.78255 1.63964 0.5
    endloop
  endfacet
  facet normal -0.923879 -0.382684 0
    outer loop
      vertex 2.78255 1.63964 1.45
      vertex 3.12696 0.808153 0.5
      vertex 3.12696 0.808153 1.45
    endloop
  endfacet
  facet normal 0.382683 -0.92388 0
    outer loop
      vertex 3.12696 0.808153 0.5
      vertex 9.6126 3.49459 1.45
      vertex 3.12696 0.808153 1.45
    endloop
  endfacet
  facet normal 0.382683 -0.92388 0
    outer loop
      vertex 9.6126 3.49459 1.45
      vertex 3.12696 0.808153 0.5
      vertex 9.6126 3.49459 0.5
    endloop
  endfacet
  facet normal -0.382683 0.92388 0
    outer loop
      vertex 9.26818 4.32608 0.5
      vertex 2.78255 1.63964 1.45
      vertex 9.26818 4.32608 1.45
    endloop
  endfacet
  facet normal -0.382683 0.92388 0
    outer loop
      vertex 2.78255 1.63964 1.45
      vertex 9.26818 4.32608 0.5
      vertex 2.78255 1.63964 0.5
    endloop
  endfacet
  facet normal 0.707107 0.707107 0
    outer loop
      vertex 7.54356 6.90716 1.45
      vertex 6.90716 7.54356 0.5
      vertex 6.90716 7.54356 1.45
    endloop
  endfacet
  facet normal 0.707107 0.707107 0
    outer loop
      vertex 6.90716 7.54356 0.5
      vertex 7.54356 6.90716 1.45
      vertex 7.54356 6.90716 0.5
    endloop
  endfacet
  facet normal 0 0 1
    outer loop
      vertex 6.90716 7.54356 1.45
      vertex 2.57967 1.94327 1.45
      vertex 7.54356 6.90716 1.45
    endloop
  endfacet
  facet normal 0 -0 1
    outer loop
      vertex 2.57967 1.94327 1.45
      vertex 6.90716 7.54356 1.45
      vertex 1.94327 2.57967 1.45
    endloop
  endfacet
  facet normal -0.707107 0.707107 0
    outer loop
      vertex 1.94327 2.57967 0.5
      vertex 6.90716 7.54356 1.45
      vertex 6.90716 7.54356 0.5
    endloop
  endfacet
  facet normal -0.707107 0.707107 0
    outer loop
      vertex 6.90716 7.54356 1.45
      vertex 1.94327 2.57967 0.5
      vertex 1.94327 2.57967 1.45
    endloop
  endfacet
  facet normal -0.707107 -0.707107 0
    outer loop
      vertex 2.57967 1.94327 0.5
      vertex 1.94327 2.57967 1.45
      vertex 1.94327 2.57967 0.5
    endloop
  endfacet
  facet normal -0.707107 -0.707107 0
    outer loop
      vertex 1.94327 2.57967 1.45
      vertex 2.57967 1.94327 0.5
      vertex 2.57967 1.94327 1.45
    endloop
  endfacet
  facet normal 0.707107 -0.707107 0
    outer loop
      vertex 2.57967 1.94327 0.5
      vertex 7.54356 6.90716 1.45
      vertex 2.57967 1.94327 1.45
    endloop
  endfacet
  facet normal 0.707107 -0.707107 0
    outer loop
      vertex 7.54356 6.90716 1.45
      vertex 2.57967 1.94327 0.5
      vertex 7.54356 6.90716 0.5
    endloop
  endfacet
  facet normal 0.382683 0.92388 -0
    outer loop
      vertex 4.32608 9.26818 0.5
      vertex 3.49459 9.6126 1.45
      vertex 4.32608 9.26818 1.45
    endloop
  endfacet
  facet normal 0.382683 0.92388 0
    outer loop
      vertex 3.49459 9.6126 1.45
      vertex 4.32608 9.26818 0.5
      vertex 3.49459 9.6126 0.5
    endloop
  endfacet
  facet normal 0 0 1
    outer loop
      vertex 3.49459 9.6126 1.45
      vertex 1.63964 2.78255 1.45
      vertex 4.32608 9.26818 1.45
    endloop
  endfacet
  facet normal 0 -0 1
    outer loop
      vertex 1.63964 2.78255 1.45
      vertex 3.49459 9.6126 1.45
      vertex 0.808153 3.12696 1.45
    endloop
  endfacet
  facet normal -0.382684 -0.923879 0
    outer loop
      vertex 0.808153 3.12696 0.5
      vertex 1.63964 2.78255 1.45
      vertex 0.808153 3.12696 1.45
    endloop
  endfacet
  facet normal -0.382684 -0.923879 -0
    outer loop
      vertex 1.63964 2.78255 1.45
      vertex 0.808153 3.12696 0.5
      vertex 1.63964 2.78255 0.5
    endloop
  endfacet
  facet normal 0.92388 -0.382683 0
    outer loop
      vertex 1.63964 2.78255 1.45
      vertex 4.32608 9.26818 0.5
      vertex 4.32608 9.26818 1.45
    endloop
  endfacet
  facet normal 0.92388 -0.382683 0
    outer loop
      vertex 4.32608 9.26818 0.5
      vertex 1.63964 2.78255 1.45
      vertex 1.63964 2.78255 0.5
    endloop
  endfacet
  facet normal -0.92388 0.382683 0
    outer loop
      vertex 0.808153 3.12696 0.5
      vertex 3.49459 9.6126 1.45
      vertex 3.49459 9.6126 0.5
    endloop
  endfacet
  facet normal -0.92388 0.382683 0
    outer loop
      vertex 3.49459 9.6126 1.45
      vertex 0.808153 3.12696 0.5
      vertex 0.808153 3.12696 1.45
    endloop
  endfacet
  facet normal 0 1 -0
    outer loop
      vertex 0.45 10.2182 0.5
      vertex -0.45 10.2182 1.45
      vertex 0.45 10.2182 1.45
    endloop
  endfacet
  facet normal 0 1 0
    outer loop
      vertex -0.45 10.2182 1.45
      vertex 0.45 10.2182 0.5
      vertex -0.45 10.2182 0.5
    endloop
  endfacet
  facet normal -0 0 1
    outer loop
      vertex -0.45 10.2182 1.45
      vertex 0.45 3.1982 1.45
      vertex 0.45 10.2182 1.45
    endloop
  endfacet
  facet normal 0 0 1
    outer loop
      vertex 0.45 3.1982 1.45
      vertex -0.45 10.2182 1.45
      vertex -0.45 3.1982 1.45
    endloop
  endfacet
  facet normal 0 -1 0
    outer loop
      vertex -0.45 3.1982 0.5
      vertex 0.45 3.1982 1.45
      vertex -0.45 3.1982 1.45
    endloop
  endfacet
  facet normal 0 -1 -0
    outer loop
      vertex 0.45 3.1982 1.45
      vertex -0.45 3.1982 0.5
      vertex 0.45 3.1982 0.5
    endloop
  endfacet
  facet normal 1 -0 0
    outer loop
      vertex 0.45 3.1982 1.45
      vertex 0.45 10.2182 0.5
      vertex 0.45 10.2182 1.45
    endloop
  endfacet
  facet normal 1 0 0
    outer loop
      vertex 0.45 10.2182 0.5
      vertex 0.45 3.1982 1.45
      vertex 0.45 3.1982 0.5
    endloop
  endfacet
  facet normal -1 0 0
    outer loop
      vertex -0.45 3.1982 0.5
      vertex -0.45 10.2182 1.45
      vertex -0.45 10.2182 0.5
    endloop
  endfacet
  facet normal -1 -0 0
    outer loop
      vertex -0.45 10.2182 1.45
      vertex -0.45 3.1982 0.5
      vertex -0.45 3.1982 1.45
    endloop
  endfacet
  facet normal 0 0 1
    outer loop
      vertex -3.49459 9.6126 1.45
      vertex -1.63964 2.78255 1.45
      vertex -0.808153 3.12696 1.45
    endloop
  endfacet
  facet normal 0 0 1
    outer loop
      vertex -1.63964 2.78255 1.45
      vertex -3.49459 9.6126 1.45
      vertex -4.32608 9.26818 1.45
    endloop
  endfacet
  facet normal -0.382683 0.92388 0
    outer loop
      vertex -3.49459 9.6126 0.5
      vertex -4.32608 9.26818 1.45
      vertex -3.49459 9.6126 1.45
    endloop
  endfacet
  facet normal -0.382683 0.92388 0
    outer loop
      vertex -4.32608 9.26818 1.45
      vertex -3.49459 9.6126 0.5
      vertex -4.32608 9.26818 0.5
    endloop
  endfacet
  facet normal 0.92388 0.382683 0
    outer loop
      vertex -0.808153 3.12696 1.45
      vertex -3.49459 9.6126 0.5
      vertex -3.49459 9.6126 1.45
    endloop
  endfacet
  facet normal 0.92388 0.382683 0
    outer loop
      vertex -3.49459 9.6126 0.5
      vertex -0.808153 3.12696 1.45
      vertex -0.808153 3.12696 0.5
    endloop
  endfacet
  facet normal 0.382684 -0.923879 0
    outer loop
      vertex -1.63964 2.78255 0.5
      vertex -0.808153 3.12696 1.45
      vertex -1.63964 2.78255 1.45
    endloop
  endfacet
  facet normal 0.382684 -0.923879 0
    outer loop
      vertex -0.808153 3.12696 1.45
      vertex -1.63964 2.78255 0.5
      vertex -0.808153 3.12696 0.5
    endloop
  endfacet
  facet normal -0.92388 -0.382683 0
    outer loop
      vertex -1.63964 2.78255 0.5
      vertex -4.32608 9.26818 1.45
      vertex -4.32608 9.26818 0.5
    endloop
  endfacet
  facet normal -0.92388 -0.382683 0
    outer loop
      vertex -4.32608 9.26818 1.45
      vertex -1.63964 2.78255 0.5
      vertex -1.63964 2.78255 1.45
    endloop
  endfacet
  facet normal 0 0 1
    outer loop
      vertex -6.90716 7.54356 1.45
      vertex -2.57967 1.94327 1.45
      vertex -1.94327 2.57967 1.45
    endloop
  endfacet
  facet normal 0 0 1
    outer loop
      vertex -2.57967 1.94327 1.45
      vertex -6.90716 7.54356 1.45
      vertex -7.54356 6.90716 1.45
    endloop
  endfacet
  facet normal -0.707107 0.707107 0
    outer loop
      vertex -7.54356 6.90716 0.5
      vertex -6.90716 7.54356 1.45
      vertex -6.90716 7.54356 0.5
    endloop
  endfacet
  facet normal -0.707107 0.707107 0
    outer loop
      vertex -6.90716 7.54356 1.45
      vertex -7.54356 6.90716 0.5
      vertex -7.54356 6.90716 1.45
    endloop
  endfacet
  facet normal 0.707107 0.707107 0
    outer loop
      vertex -1.94327 2.57967 1.45
      vertex -6.90716 7.54356 0.5
      vertex -6.90716 7.54356 1.45
    endloop
  endfacet
  facet normal 0.707107 0.707107 0
    outer loop
      vertex -6.90716 7.54356 0.5
      vertex -1.94327 2.57967 1.45
      vertex -1.94327 2.57967 0.5
    endloop
  endfacet
  facet normal 0.707107 -0.707107 0
    outer loop
      vertex -2.57967 1.94327 1.45
      vertex -1.94327 2.57967 0.5
      vertex -1.94327 2.57967 1.45
    endloop
  endfacet
  facet normal 0.707107 -0.707107 0
    outer loop
      vertex -1.94327 2.57967 0.5
      vertex -2.57967 1.94327 1.45
      vertex -2.57967 1.94327 0.5
    endloop
  endfacet
  facet normal -0.707107 -0.707107 0
    outer loop
      vertex -7.54356 6.90716 0.5
      vertex -2.57967 1.94327 1.45
      vertex -7.54356 6.90716 1.45
    endloop
  endfacet
  facet normal -0.707107 -0.707107 -0
    outer loop
      vertex -2.57967 1.94327 1.45
      vertex -7.54356 6.90716 0.5
      vertex -2.57967 1.94327 0.5
    endloop
  endfacet
  facet normal 0 0 1
    outer loop
      vertex -9.26818 4.32608 1.45
      vertex -3.12696 0.808153 1.45
      vertex -2.78255 1.63964 1.45
    endloop
  endfacet
  facet normal 0 0 1
    outer loop
      vertex -3.12696 0.808153 1.45
      vertex -9.26818 4.32608 1.45
      vertex -9.6126 3.49459 1.45
    endloop
  endfacet
  facet normal -0.92388 0.382683 0
    outer loop
      vertex -9.6126 3.49459 0.5
      vertex -9.26818 4.32608 1.45
      vertex -9.26818 4.32608 0.5
    endloop
  endfacet
  facet normal -0.92388 0.382683 0
    outer loop
      vertex -9.26818 4.32608 1.45
      vertex -9.6126 3.49459 0.5
      vertex -9.6126 3.49459 1.45
    endloop
  endfacet
  facet normal 0.923879 -0.382684 0
    outer loop
      vertex -3.12696 0.808153 1.45
      vertex -2.78255 1.63964 0.5
      vertex -2.78255 1.63964 1.45
    endloop
  endfacet
  facet normal 0.923879 -0.382684 0
    outer loop
      vertex -2.78255 1.63964 0.5
      vertex -3.12696 0.808153 1.45
      vertex -3.12696 0.808153 0.5
    endloop
  endfacet
  facet normal 0.382683 0.92388 -0
    outer loop
      vertex -2.78255 1.63964 0.5
      vertex -9.26818 4.32608 1.45
      vertex -2.78255 1.63964 1.45
    endloop
  endfacet
  facet normal 0.382683 0.92388 0
    outer loop
      vertex -9.26818 4.32608 1.45
      vertex -2.78255 1.63964 0.5
      vertex -9.26818 4.32608 0.5
    endloop
  endfacet
  facet normal -0.382683 -0.92388 0
    outer loop
      vertex -9.6126 3.49459 0.5
      vertex -3.12696 0.808153 1.45
      vertex -9.6126 3.49459 1.45
    endloop
  endfacet
  facet normal -0.382683 -0.92388 -0
    outer loop
      vertex -3.12696 0.808153 1.45
      vertex -9.6126 3.49459 0.5
      vertex -3.12696 0.808153 0.5
    endloop
  endfacet
  facet normal -0 0 1
    outer loop
      vertex -10.2182 0.45 1.45
      vertex -3.1982 -0.45 1.45
      vertex -3.1982 0.45 1.45
    endloop
  endfacet
  facet normal 0 0 1
    outer loop
      vertex -3.1982 -0.45 1.45
      vertex -10.2182 0.45 1.45
      vertex -10.2182 -0.45 1.45
    endloop
  endfacet
  facet normal -1 0 0
    outer loop
      vertex -10.2182 -0.45 0.5
      vertex -10.2182 0.45 1.45
      vertex -10.2182 0.45 0.5
    endloop
  endfacet
  facet normal -1 -0 0
    outer loop
      vertex -10.2182 0.45 1.45
      vertex -10.2182 -0.45 0.5
      vertex -10.2182 -0.45 1.45
    endloop
  endfacet
  facet normal 1 -0 0
    outer loop
      vertex -3.1982 -0.45 1.45
      vertex -3.1982 0.45 0.5
      vertex -3.1982 0.45 1.45
    endloop
  endfacet
  facet normal 1 0 0
    outer loop
      vertex -3.1982 0.45 0.5
      vertex -3.1982 -0.45 1.45
      vertex -3.1982 -0.45 0.5
    endloop
  endfacet
  facet normal 0 1 -0
    outer loop
      vertex -3.1982 0.45 0.5
      vertex -10.2182 0.45 1.45
      vertex -3.1982 0.45 1.45
    endloop
  endfacet
  facet normal 0 1 0
    outer loop
      vertex -10.2182 0.45 1.45
      vertex -3.1982 0.45 0.5
      vertex -10.2182 0.45 0.5
    endloop
  endfacet
  facet normal 0 -1 0
    outer loop
      vertex -10.2182 -0.45 0.5
      vertex -3.1982 -0.45 1.45
      vertex -10.2182 -0.45 1.45
    endloop
  endfacet
  facet normal 0 -1 -0
    outer loop
      vertex -3.1982 -0.45 1.45
      vertex -10.2182 -0.45 0.5
      vertex -3.1982 -0.45 0.5
    endloop
  endfacet
  facet normal 0 0 1
    outer loop
      vertex -3.12696 -0.808153 1.45
      vertex -9.26818 -4.32608 1.45
      vertex -2.78255 -1.63964 1.45
    endloop
  endfacet
  facet normal 0 -0 1
    outer loop
      vertex -9.26818 -4.32608 1.45
      vertex -3.12696 -0.808153 1.45
      vertex -9.6126 -3.49459 1.45
    endloop
  endfacet
  facet normal 0.923879 0.382684 0
    outer loop
      vertex -2.78255 -1.63964 1.45
      vertex -3.12696 -0.808153 0.5
      vertex -3.12696 -0.808153 1.45
    endloop
  endfacet
  facet normal 0.923879 0.382684 0
    outer loop
      vertex -3.12696 -0.808153 0.5
      vertex -2.78255 -1.63964 1.45
      vertex -2.78255 -1.63964 0.5
    endloop
  endfacet
  facet normal -0.92388 -0.382683 0
    outer loop
      vertex -9.26818 -4.32608 0.5
      vertex -9.6126 -3.49459 1.45
      vertex -9.6126 -3.49459 0.5
    endloop
  endfacet
  facet normal -0.92388 -0.382683 0
    outer loop
      vertex -9.6126 -3.49459 1.45
      vertex -9.26818 -4.32608 0.5
      vertex -9.26818 -4.32608 1.45
    endloop
  endfacet
  facet normal -0.382683 0.92388 0
    outer loop
      vertex -3.12696 -0.808153 0.5
      vertex -9.6126 -3.49459 1.45
      vertex -3.12696 -0.808153 1.45
    endloop
  endfacet
  facet normal -0.382683 0.92388 0
    outer loop
      vertex -9.6126 -3.49459 1.45
      vertex -3.12696 -0.808153 0.5
      vertex -9.6126 -3.49459 0.5
    endloop
  endfacet
  facet normal 0.382683 -0.92388 0
    outer loop
      vertex -9.26818 -4.32608 0.5
      vertex -2.78255 -1.63964 1.45
      vertex -9.26818 -4.32608 1.45
    endloop
  endfacet
  facet normal 0.382683 -0.92388 0
    outer loop
      vertex -2.78255 -1.63964 1.45
      vertex -9.26818 -4.32608 0.5
      vertex -2.78255 -1.63964 0.5
    endloop
  endfacet
  facet normal 0 0 1
    outer loop
      vertex -2.57967 -1.94327 1.45
      vertex -6.90716 -7.54356 1.45
      vertex -1.94327 -2.57967 1.45
    endloop
  endfacet
  facet normal 0 -0 1
    outer loop
      vertex -6.90716 -7.54356 1.45
      vertex -2.57967 -1.94327 1.45
      vertex -7.54356 -6.90716 1.45
    endloop
  endfacet
  facet normal 0.707107 0.707107 0
    outer loop
      vertex -1.94327 -2.57967 1.45
      vertex -2.57967 -1.94327 0.5
      vertex -2.57967 -1.94327 1.45
    endloop
  endfacet
  facet normal 0.707107 0.707107 0
    outer loop
      vertex -2.57967 -1.94327 0.5
      vertex -1.94327 -2.57967 1.45
      vertex -1.94327 -2.57967 0.5
    endloop
  endfacet
  facet normal -0.707107 -0.707107 0
    outer loop
      vertex -6.90716 -7.54356 0.5
      vertex -7.54356 -6.90716 1.45
      vertex -7.54356 -6.90716 0.5
    endloop
  endfacet
  facet normal -0.707107 -0.707107 0
    outer loop
      vertex -7.54356 -6.90716 1.45
      vertex -6.90716 -7.54356 0.5
      vertex -6.90716 -7.54356 1.45
    endloop
  endfacet
  facet normal -0.707107 0.707107 0
    outer loop
      vertex -2.57967 -1.94327 0.5
      vertex -7.54356 -6.90716 1.45
      vertex -2.57967 -1.94327 1.45
    endloop
  endfacet
  facet normal -0.707107 0.707107 0
    outer loop
      vertex -7.54356 -6.90716 1.45
      vertex -2.57967 -1.94327 0.5
      vertex -7.54356 -6.90716 0.5
    endloop
  endfacet
  facet normal 0.707107 -0.707107 0
    outer loop
      vertex -6.90716 -7.54356 1.45
      vertex -1.94327 -2.57967 0.5
      vertex -1.94327 -2.57967 1.45
    endloop
  endfacet
  facet normal 0.707107 -0.707107 0
    outer loop
      vertex -1.94327 -2.57967 0.5
      vertex -6.90716 -7.54356 1.45
      vertex -6.90716 -7.54356 0.5
    endloop
  endfacet
  facet normal 0 0 1
    outer loop
      vertex -1.63964 -2.78255 1.45
      vertex -3.49459 -9.6126 1.45
      vertex -0.808153 -3.12696 1.45
    endloop
  endfacet
  facet normal 0 -0 1
    outer loop
      vertex -3.49459 -9.6126 1.45
      vertex -1.63964 -2.78255 1.45
      vertex -4.32608 -9.26818 1.45
    endloop
  endfacet
  facet normal 0.382684 0.923879 -0
    outer loop
      vertex -0.808153 -3.12696 0.5
      vertex -1.63964 -2.78255 1.45
      vertex -0.808153 -3.12696 1.45
    endloop
  endfacet
  facet normal 0.382684 0.923879 0
    outer loop
      vertex -1.63964 -2.78255 1.45
      vertex -0.808153 -3.12696 0.5
      vertex -1.63964 -2.78255 0.5
    endloop
  endfacet
  facet normal -0.382683 -0.92388 0
    outer loop
      vertex -4.32608 -9.26818 0.5
      vertex -3.49459 -9.6126 1.45
      vertex -4.32608 -9.26818 1.45
    endloop
  endfacet
  facet normal -0.382683 -0.92388 -0
    outer loop
      vertex -3.49459 -9.6126 1.45
      vertex -4.32608 -9.26818 0.5
      vertex -3.49459 -9.6126 0.5
    endloop
  endfacet
  facet normal -0.92388 0.382683 0
    outer loop
      vertex -4.32608 -9.26818 0.5
      vertex -1.63964 -2.78255 1.45
      vertex -1.63964 -2.78255 0.5
    endloop
  endfacet
  facet normal -0.92388 0.382683 0
    outer loop
      vertex -1.63964 -2.78255 1.45
      vertex -4.32608 -9.26818 0.5
      vertex -4.32608 -9.26818 1.45
    endloop
  endfacet
  facet normal 0.92388 -0.382683 0
    outer loop
      vertex -3.49459 -9.6126 1.45
      vertex -0.808153 -3.12696 0.5
      vertex -0.808153 -3.12696 1.45
    endloop
  endfacet
  facet normal 0.92388 -0.382683 0
    outer loop
      vertex -0.808153 -3.12696 0.5
      vertex -3.49459 -9.6126 1.45
      vertex -3.49459 -9.6126 0.5
    endloop
  endfacet
  facet normal -0 0 1
    outer loop
      vertex -0.45 -3.1982 1.45
      vertex 0.45 -10.2182 1.45
      vertex 0.45 -3.1982 1.45
    endloop
  endfacet
  facet normal 0 0 1
    outer loop
      vertex 0.45 -10.2182 1.45
      vertex -0.45 -3.1982 1.45
      vertex -0.45 -10.2182 1.45
    endloop
  endfacet
  facet normal 0 1 -0
    outer loop
      vertex 0.45 -3.1982 0.5
      vertex -0.45 -3.1982 1.45
      vertex 0.45 -3.1982 1.45
    endloop
  endfacet
  facet normal 0 1 0
    outer loop
      vertex -0.45 -3.1982 1.45
      vertex 0.45 -3.1982 0.5
      vertex -0.45 -3.1982 0.5
    endloop
  endfacet
  facet normal 0 -1 0
    outer loop
      vertex -0.45 -10.2182 0.5
      vertex 0.45 -10.2182 1.45
      vertex -0.45 -10.2182 1.45
    endloop
  endfacet
  facet normal 0 -1 -0
    outer loop
      vertex 0.45 -10.2182 1.45
      vertex -0.45 -10.2182 0.5
      vertex 0.45 -10.2182 0.5
    endloop
  endfacet
  facet normal -1 0 0
    outer loop
      vertex -0.45 -10.2182 0.5
      vertex -0.45 -3.1982 1.45
      vertex -0.45 -3.1982 0.5
    endloop
  endfacet
  facet normal -1 -0 0
    outer loop
      vertex -0.45 -3.1982 1.45
      vertex -0.45 -10.2182 0.5
      vertex -0.45 -10.2182 1.45
    endloop
  endfacet
  facet normal 1 -0 0
    outer loop
      vertex 0.45 -10.2182 1.45
      vertex 0.45 -3.1982 0.5
      vertex 0.45 -3.1982 1.45
    endloop
  endfacet
  facet normal 1 0 0
    outer loop
      vertex 0.45 -3.1982 0.5
      vertex 0.45 -10.2182 1.45
      vertex 0.45 -10.2182 0.5
    endloop
  endfacet
  facet normal -0.382684 0.923879 0
    outer loop
      vertex 1.63964 -2.78255 0.5
      vertex 0.808153 -3.12696 1.45
      vertex 1.63964 -2.78255 1.45
    endloop
  endfacet
  facet normal -0.382684 0.923879 0
    outer loop
      vertex 0.808153 -3.12696 1.45
      vertex 1.63964 -2.78255 0.5
      vertex 0.808153 -3.12696 0.5
    endloop
  endfacet
  facet normal 0 0 1
    outer loop
      vertex 1.63964 -2.78255 1.45
      vertex 3.49459 -9.6126 1.45
      vertex 4.32608 -9.26818 1.45
    endloop
  endfacet
  facet normal 0 0 1
    outer loop
      vertex 3.49459 -9.6126 1.45
      vertex 1.63964 -2.78255 1.45
      vertex 0.808153 -3.12696 1.45
    endloop
  endfacet
  facet normal 0.382683 -0.92388 0
    outer loop
      vertex 3.49459 -9.6126 0.5
      vertex 4.32608 -9.26818 1.45
      vertex 3.49459 -9.6126 1.45
    endloop
  endfacet
  facet normal 0.382683 -0.92388 0
    outer loop
      vertex 4.32608 -9.26818 1.45
      vertex 3.49459 -9.6126 0.5
      vertex 4.32608 -9.26818 0.5
    endloop
  endfacet
  facet normal -0.92388 -0.382683 0
    outer loop
      vertex 3.49459 -9.6126 0.5
      vertex 0.808153 -3.12696 1.45
      vertex 0.808153 -3.12696 0.5
    endloop
  endfacet
  facet normal -0.92388 -0.382683 0
    outer loop
      vertex 0.808153 -3.12696 1.45
      vertex 3.49459 -9.6126 0.5
      vertex 3.49459 -9.6126 1.45
    endloop
  endfacet
  facet normal 0.92388 0.382683 0
    outer loop
      vertex 4.32608 -9.26818 1.45
      vertex 1.63964 -2.78255 0.5
      vertex 1.63964 -2.78255 1.45
    endloop
  endfacet
  facet normal 0.92388 0.382683 0
    outer loop
      vertex 1.63964 -2.78255 0.5
      vertex 4.32608 -9.26818 1.45
      vertex 4.32608 -9.26818 0.5
    endloop
  endfacet
  facet normal -0.707107 0.707107 0
    outer loop
      vertex 1.94327 -2.57967 0.5
      vertex 2.57967 -1.94327 1.45
      vertex 2.57967 -1.94327 0.5
    endloop
  endfacet
  facet normal -0.707107 0.707107 0
    outer loop
      vertex 2.57967 -1.94327 1.45
      vertex 1.94327 -2.57967 0.5
      vertex 1.94327 -2.57967 1.45
    endloop
  endfacet
  facet normal 0 0 1
    outer loop
      vertex 2.57967 -1.94327 1.45
      vertex 6.90716 -7.54356 1.45
      vertex 7.54356 -6.90716 1.45
    endloop
  endfacet
  facet normal 0 0 1
    outer loop
      vertex 6.90716 -7.54356 1.45
      vertex 2.57967 -1.94327 1.45
      vertex 1.94327 -2.57967 1.45
    endloop
  endfacet
  facet normal 0.707107 -0.707107 0
    outer loop
      vertex 6.90716 -7.54356 1.45
      vertex 7.54356 -6.90716 0.5
      vertex 7.54356 -6.90716 1.45
    endloop
  endfacet
  facet normal 0.707107 -0.707107 0
    outer loop
      vertex 7.54356 -6.90716 0.5
      vertex 6.90716 -7.54356 1.45
      vertex 6.90716 -7.54356 0.5
    endloop
  endfacet
  facet normal 0.707107 0.707107 -0
    outer loop
      vertex 7.54356 -6.90716 0.5
      vertex 2.57967 -1.94327 1.45
      vertex 7.54356 -6.90716 1.45
    endloop
  endfacet
  facet normal 0.707107 0.707107 0
    outer loop
      vertex 2.57967 -1.94327 1.45
      vertex 7.54356 -6.90716 0.5
      vertex 2.57967 -1.94327 0.5
    endloop
  endfacet
  facet normal -0.707107 -0.707107 0
    outer loop
      vertex 6.90716 -7.54356 0.5
      vertex 1.94327 -2.57967 1.45
      vertex 1.94327 -2.57967 0.5
    endloop
  endfacet
  facet normal -0.707107 -0.707107 0
    outer loop
      vertex 1.94327 -2.57967 1.45
      vertex 6.90716 -7.54356 0.5
      vertex 6.90716 -7.54356 1.45
    endloop
  endfacet
  facet normal -0.923879 0.382684 0
    outer loop
      vertex 2.78255 -1.63964 0.5
      vertex 3.12696 -0.808153 1.45
      vertex 3.12696 -0.808153 0.5
    endloop
  endfacet
  facet normal -0.923879 0.382684 0
    outer loop
      vertex 3.12696 -0.808153 1.45
      vertex 2.78255 -1.63964 0.5
      vertex 2.78255 -1.63964 1.45
    endloop
  endfacet
  facet normal 0 0 1
    outer loop
      vertex 3.12696 -0.808153 1.45
      vertex 9.26818 -4.32608 1.45
      vertex 9.6126 -3.49459 1.45
    endloop
  endfacet
  facet normal 0 0 1
    outer loop
      vertex 9.26818 -4.32608 1.45
      vertex 3.12696 -0.808153 1.45
      vertex 2.78255 -1.63964 1.45
    endloop
  endfacet
  facet normal 0.92388 -0.382683 0
    outer loop
      vertex 9.26818 -4.32608 1.45
      vertex 9.6126 -3.49459 0.5
      vertex 9.6126 -3.49459 1.45
    endloop
  endfacet
  facet normal 0.92388 -0.382683 0
    outer loop
      vertex 9.6126 -3.49459 0.5
      vertex 9.26818 -4.32608 1.45
      vertex 9.26818 -4.32608 0.5
    endloop
  endfacet
  facet normal 0.382683 0.92388 -0
    outer loop
      vertex 9.6126 -3.49459 0.5
      vertex 3.12696 -0.808153 1.45
      vertex 9.6126 -3.49459 1.45
    endloop
  endfacet
  facet normal 0.382683 0.92388 0
    outer loop
      vertex 3.12696 -0.808153 1.45
      vertex 9.6126 -3.49459 0.5
      vertex 3.12696 -0.808153 0.5
    endloop
  endfacet
  facet normal -0.382683 -0.92388 0
    outer loop
      vertex 2.78255 -1.63964 0.5
      vertex 9.26818 -4.32608 1.45
      vertex 2.78255 -1.63964 1.45
    endloop
  endfacet
  facet normal -0.382683 -0.92388 -0
    outer loop
      vertex 9.26818 -4.32608 1.45
      vertex 2.78255 -1.63964 0.5
      vertex 9.26818 -4.32608 0.5
    endloop
  endfacet
  facet normal 0 0 1
    outer loop
      vertex 3.1982 0.45 0.5
      vertex 10.2182 0.45 0.5
      vertex 10.2182 -0.45 0.5
    endloop
  endfacet
  facet normal 0 0 1
    outer loop
      vertex 3.1982 0.45 0.5
      vertex 10.2182 -0.45 0.5
      vertex 3.1982 -0.45 0.5
    endloop
  endfacet
  facet normal 0 0 1
    outer loop
      vertex 2.78255 1.63964 0.5
      vertex 9.26818 4.32608 0.5
      vertex 9.6126 3.49459 0.5
    endloop
  endfacet
  facet normal 0 0 1
    outer loop
      vertex 2.78255 1.63964 0.5
      vertex 9.6126 3.49459 0.5
      vertex 3.12696 0.808153 0.5
    endloop
  endfacet
  facet normal 0 0 1
    outer loop
      vertex 1.94327 2.57967 0.5
      vertex 6.90716 7.54356 0.5
      vertex 7.54356 6.90716 0.5
    endloop
  endfacet
  facet normal 0 0 1
    outer loop
      vertex 1.94327 2.57967 0.5
      vertex 7.54356 6.90716 0.5
      vertex 2.57967 1.94327 0.5
    endloop
  endfacet
  facet normal 0 0 1
    outer loop
      vertex 0.808153 3.12696 0.5
      vertex 3.49459 9.6126 0.5
      vertex 4.32608 9.26818 0.5
    endloop
  endfacet
  facet normal 0 0 1
    outer loop
      vertex 0.808153 3.12696 0.5
      vertex 4.32608 9.26818 0.5
      vertex 1.63964 2.78255 0.5
    endloop
  endfacet
  facet normal 0 0 1
    outer loop
      vertex -0.45 3.1982 0.5
      vertex -0.45 10.2182 0.5
      vertex 0.45 10.2182 0.5
    endloop
  endfacet
  facet normal 0 0 1
    outer loop
      vertex -0.45 3.1982 0.5
      vertex 0.45 10.2182 0.5
      vertex 0.45 3.1982 0.5
    endloop
  endfacet
  facet normal 0 0 1
    outer loop
      vertex -1.63964 2.78255 0.5
      vertex -4.32608 9.26818 0.5
      vertex -3.49459 9.6126 0.5
    endloop
  endfacet
  facet normal 0 0 1
    outer loop
      vertex -1.63964 2.78255 0.5
      vertex -3.49459 9.6126 0.5
      vertex -0.808153 3.12696 0.5
    endloop
  endfacet
  facet normal 0 0 1
    outer loop
      vertex -2.57967 1.94327 0.5
      vertex -7.54356 6.90716 0.5
      vertex -6.90716 7.54356 0.5
    endloop
  endfacet
  facet normal 0 0 1
    outer loop
      vertex -2.57967 1.94327 0.5
      vertex -6.90716 7.54356 0.5
      vertex -1.94327 2.57967 0.5
    endloop
  endfacet
  facet normal 0 0 1
    outer loop
      vertex -3.12696 0.808153 0.5
      vertex -9.6126 3.49459 0.5
      vertex -9.26818 4.32608 0.5
    endloop
  endfacet
  facet normal 0 0 1
    outer loop
      vertex -3.12696 0.808153 0.5
      vertex -9.26818 4.32608 0.5
      vertex -2.78255 1.63964 0.5
    endloop
  endfacet
  facet normal 0 0 1
    outer loop
      vertex -3.1982 -0.45 0.5
      vertex -10.2182 -0.45 0.5
      vertex -10.2182 0.45 0.5
    endloop
  endfacet
  facet normal 0 0 1
    outer loop
      vertex -3.1982 -0.45 0.5
      vertex -10.2182 0.45 0.5
      vertex -3.1982 0.45 0.5
    endloop
  endfacet
  facet normal 0 0 1
    outer loop
      vertex -2.78255 -1.63964 0.5
      vertex -9.26818 -4.32608 0.5
      vertex -9.6126 -3.49459 0.5
    endloop
  endfacet
  facet normal 0 0 1
    outer loop
      vertex -2.78255 -1.63964 0.5
      vertex -9.6126 -3.49459 0.5
      vertex -3.12696 -0.808153 0.5
    endloop
  endfacet
  facet normal 0 0 1
    outer loop
      vertex -1.94327 -2.57967 0.5
      vertex -6.90716 -7.54356 0.5
      vertex -7.54356 -6.90716 0.5
    endloop
  endfacet
  facet normal 0 0 1
    outer loop
      vertex -1.94327 -2.57967 0.5
      vertex -7.54356 -6.90716 0.5
      vertex -2.57967 -1.94327 0.5
    endloop
  endfacet
  facet normal 0 0 1
    outer loop
      vertex -0.808153 -3.12696 0.5
      vertex -3.49459 -9.6126 0.5
      vertex -4.32608 -9.26818 0.5
    endloop
  endfacet
  facet normal 0 0 1
    outer loop
      vertex -0.808153 -3.12696 0.5
      vertex -4.32608 -9.26818 0.5
      vertex -1.63964 -2.78255 0.5
    endloop
  endfacet
  facet normal 0 0 1
    outer loop
      vertex 0.45 -3.1982 0.5
      vertex 0.45 -10.2182 0.5
      vertex -0.45 -10.2182 0.5
    endloop
  endfacet
  facet normal 0 0 1
    outer loop
      vertex 0.45 -3.1982 0.5
      vertex -0.45 -10.2182 0.5
      vertex -0.45 -3.1982 0.5
    endloop
  endfacet
  facet normal 0 0 1
    outer loop
      vertex 1.63964 -2.78255 0.5
      vertex 4.32608 -9.26818 0.5
      vertex 3.49459 -9.6126 0.5
    endloop
  endfacet
  facet normal 0 0 1
    outer loop
      vertex 1.63964 -2.78255 0.5
      vertex 3.49459 -9.6126 0.5
      vertex 0.808153 -3.12696 0.5
    endloop
  endfacet
  facet normal 0 0 1
    outer loop
      vertex 2.57967 -1.94327 0.5
      vertex 7.54356 -6.90716 0.5
      vertex 6.90716 -7.54356 0.5
    endloop
  endfacet
  facet normal 0 0 1
    outer loop
      vertex 2.57967 -1.94327 0.5
      vertex 6.90716 -7.54356 0.5
      vertex 1.94327 -2.57967 0.5
    endloop
  endfacet
  facet normal 0 0 1
    outer loop
      vertex 3.12696 -0.808153 0.5
      vertex 9.6126 -3.49459 0.5
      vertex 9.26818 -4.32608 0.5
    endloop
  endfacet
  facet normal 0 0 1
    outer loop
      vertex 3.12696 -0.808153 0.5
      vertex 9.26818 -4.32608 0.5
      vertex 2.78255 -1.63964 0.5
    endloop
  endfacet
endsolid OpenSCAD_Model
